# xmcd
#
# Track frame offsets: 
#        150
#        13253
#        30147
#        50883
#        65931
#        79856
#        101213
#        108434
#        125676
#        135671
#        149444
#        167443
#        180614
#        195372
#        210318
#        224972
#
# Disc length: 3242 seconds
#
# Revision: 0
# Processed by: cddbd v1.5.2PL0 Copyright (c) Steve Scherf et al.
# Submitted via: ExactAudioCopyFreeDBPlugin 1.0
#
DISCID=f30ca810
DTITLE=Eric Bibb - Brookers Guitar
DYEAR=2010
DGENRE=Blues
TTITLE0=Booker's Guitar
TTITLE1=With My Maker I Am One
TTITLE2=Flood Water
TTITLE3=Walkin' Blues Again
TTITLE4=Sunrise Blues
TTITLE5=Wayfaring Stranger
TTITLE6=Train From Aberdeen
TTITLE7=New Home
TTITLE8=Nobody's Fault But Mine
TTITLE9=One Soul To Save
TTITLE10=Rocking Chair
TTITLE11=Turning Pages
TTITLE12=A Good Woman
TTITLE13=Tell Riley
TTITLE14=A - Z Blues
TTITLE15=Everyday's Been Sunday
EXTD=
EXTT0=
EXTT1=
EXTT2=
EXTT3=
EXTT4=
EXTT5=
EXTT6=
EXTT7=
EXTT8=
EXTT9=
EXTT10=
EXTT11=
EXTT12=
EXTT13=
EXTT14=
EXTT15=
PLAYORDER=
